<?xml version="1.0" standalone="no"?>
<svg xmlns="http://www.w3.org/2000/svg" viewBox="0 0 212 221" width="32" height="32">
  <rect width="212" height="221" rx="48" fill="#d4a427"/>
  <g transform="translate(0,221) scale(0.1,-0.1)" fill="#0d0e10" stroke="none">
    <path d="M1420 1904 c-530 -103 -743 -144 -1042 -201 -109 -20 -198 -41 -198
-46 0 -4 8 -6 18 -3 35 10 997 18 987 8 -5 -5 -100 -76 -210 -156 -110 -81
-210 -155 -222 -164 l-22 -17 266 -558 c146 -306 267 -556 268 -555 3 3 -29
181 -135 761 -34 186 -59 344 -57 351 3 8 71 65 152 127 81 63 264 206 408
318 144 112 268 206 275 208 13 5 17 24 5 22 -5 0 -226 -43 -493 -95z"/>
  </g>
</svg>
