<?xml version="1.0" standalone="no"?>
<!DOCTYPE svg PUBLIC "-//W3C//DTD SVG 20010904//EN"
 "http://www.w3.org/TR/2001/REC-SVG-20010904/DTD/svg10.dtd">
<svg version="1.0" xmlns="http://www.w3.org/2000/svg"
 width="212.000000pt" height="221.000000pt" viewBox="0 0 212.000000 221.000000"
 preserveAspectRatio="xMidYMid meet">

<g transform="translate(0.000000,221.000000) scale(0.100000,-0.100000)"
fill="#000000" stroke="none">
<path d="M1420 1904 c-530 -103 -743 -144 -1042 -201 -109 -20 -198 -41 -198
-46 0 -4 8 -6 18 -3 35 10 997 18 987 8 -5 -5 -100 -76 -210 -156 -110 -81
-210 -155 -222 -164 l-22 -17 266 -558 c146 -306 267 -556 268 -555 3 3 -29
181 -135 761 -34 186 -59 344 -57 351 3 8 71 65 152 127 81 63 264 206 408
318 144 112 268 206 275 208 13 5 17 24 5 22 -5 0 -226 -43 -493 -95z"/>
</g>
</svg>
